<svg width="144" height="144" viewBox="0 0 144 144" fill="none" xmlns="http://www.w3.org/2000/svg">
<g clip-path="url(#clip0)">
<path d="M133.607 17.915C131.619 17.915 129.856 18.7548 128.596 20.1264C127.337 18.7548 125.545 17.915 123.586 17.915C119.779 17.915 116.672 21.0782 116.672 24.9971C116.672 30.4835 128.596 39.609 128.596 39.609C128.596 39.609 140.521 30.4835 140.521 24.9971C140.521 21.0782 137.414 17.915 133.607 17.915Z" fill="#666665"/>
<path d="M19.7626 2.79932C17.7751 2.79932 16.0116 3.63908 14.752 5.0107C13.4643 3.63908 11.7008 2.79932 9.71339 2.79932C5.90645 2.79932 2.79932 5.96243 2.79932 9.88134C2.79932 15.3678 14.724 24.4933 14.724 24.4933C14.724 24.4933 26.6487 15.3678 26.6487 9.88134C26.6767 5.96243 23.5695 2.79932 19.7626 2.79932Z" fill="#FFA401"/>
<path d="M109.002 140.269L140.521 108.722L125.489 93.6898L125.517 81.2053C125.517 73.2555 123.166 65.4457 118.743 58.8395L106.426 40.4766C103.823 36.5857 98.5045 35.606 94.6696 38.3212C91.0586 40.8685 90.1629 45.8791 92.4582 49.6581L97.1609 57.4399C97.8887 58.6436 96.2932 59.9312 95.2854 58.9235L60.6031 24.2412C57.412 21.0501 52.1495 20.8821 48.9304 24.0732C45.8232 27.1244 45.7113 32.023 48.5105 35.2421L43.4439 30.1755C40.2808 27.0124 35.1862 26.9844 31.9951 30.0635C28.692 33.2547 28.804 38.6572 32.0231 41.8763L36.9217 46.7749C33.7026 43.9757 28.804 44.1156 25.7528 47.1948C22.5617 50.4139 22.7297 55.6484 25.9208 58.8675L31.4073 64.354C28.1882 61.5548 23.3175 61.6947 20.2664 64.7459C17.0753 67.937 17.0753 73.1155 20.2664 76.3066L46.831 102.871L57.496 113.536C65.0259 121.066 75.243 125.293 85.8801 125.265H93.9418L109.002 140.269Z" fill="#FCBE59"/>
<path d="M25.473 140.521L37.7896 128.204H46.775C52.5134 128.204 58.0839 126.525 62.8426 123.333L76.0549 114.488C78.8541 112.612 79.5539 108.806 77.6224 106.062C75.8029 103.459 72.3039 102.731 69.5887 104.383L63.8783 107.854C63.0105 108.386 62.0868 107.238 62.8146 106.51L81.7093 87.6154C84.0047 85.3201 84.0047 81.5971 81.7093 79.3018C79.4139 77.0064 75.691 77.0064 73.3956 79.3018L60.1833 92.4581L64.3261 88.3432L77.5385 75.1309C79.8338 72.8356 79.8338 69.1126 77.5385 66.8172C75.2431 64.5219 71.5201 64.5219 69.2248 66.8172L56.0125 80.0576L51.8976 84.2004L65.1099 70.9881C67.4053 68.6927 67.4053 64.9698 65.1099 62.6744C62.8146 60.379 59.0916 60.379 56.7962 62.6744L43.5839 75.8867L43.6119 75.9147L47.055 72.4717C49.3503 70.1763 49.3503 66.4533 47.055 64.158C44.7596 61.8626 41.0366 61.8626 38.7413 64.158L31.1834 71.7159L37.4257 65.4736L23.5415 79.3577C18.139 84.7602 15.0879 92.1222 15.1159 99.764V105.558L2.79932 117.875L25.473 140.521Z" fill="#FCBE59"/>
<path d="M95.9292 123.25C95.3973 122.718 94.6975 122.438 93.9417 122.438H85.88C85.852 122.438 85.852 122.438 85.824 122.438C81.3732 122.438 76.9225 121.626 72.7236 120.059L77.5663 116.812C79.5537 115.496 80.8694 113.452 81.3172 111.101C81.7651 108.75 81.2333 106.398 79.8616 104.439C78.1541 102.004 75.4109 100.688 72.6397 100.688C72.5837 100.688 72.5557 100.688 72.4997 100.688L83.6406 89.5471C87.0276 86.1601 87.0276 80.6736 83.6406 77.2866C82.8288 76.4748 81.8491 75.831 80.8134 75.3831C81.5972 74.0675 81.989 72.5559 81.989 70.9883C81.989 68.665 81.0933 66.4816 79.4418 64.858C77.7902 63.2065 75.6348 62.3107 73.3115 62.3107C71.7439 62.3107 70.2323 62.7306 68.9167 63.4864C68.4968 62.4507 67.853 61.471 67.0132 60.6592C65.3617 59.0077 63.2063 58.1119 60.8829 58.1119C58.5596 58.1119 56.3762 59.0077 54.7527 60.6592L50.7498 64.6621C50.3299 63.7104 49.742 62.8706 48.9863 62.1148C47.3347 60.4633 45.1793 59.5675 42.856 59.5675C40.5326 59.5675 38.3492 60.4633 36.7257 62.1148L34.9622 63.8783L27.7402 56.7123C25.6408 54.6129 25.6408 51.1978 27.7402 49.0984C29.6996 47.139 32.8068 46.999 34.9342 48.7345L41.9322 55.7326C42.4921 56.2924 43.1919 56.5443 43.9197 56.5443C44.6475 56.5443 45.3473 56.2644 45.9071 55.7326C46.9988 54.6409 46.9988 52.8774 45.9071 51.7857L33.8705 39.749C31.7711 37.6496 31.7711 34.2346 33.8705 32.1352C35.9699 30.0357 39.3849 30.0357 41.4844 32.1352L62.5905 53.2973C63.1503 53.8571 63.8501 54.109 64.5779 54.109C65.3057 54.109 66.0055 53.8291 66.5654 53.2973C67.6571 52.2056 67.6571 50.4421 66.5654 49.3504L50.5258 33.2548C48.8183 31.1554 48.9303 28.0203 50.8897 26.0609C52.9891 23.9614 56.4042 23.9614 58.5036 26.0609L64.382 31.9392C65.4737 33.0309 67.2372 33.0309 68.3289 31.9392C69.4206 30.8475 69.4206 29.084 68.3289 27.9923L62.4505 22.114C58.1677 17.8312 51.1976 17.8312 46.9428 22.114C45.5152 23.5416 44.5915 25.2491 44.1156 27.0406C42.2681 25.697 40.0567 24.9692 37.7054 24.9692C34.7662 24.9692 32.023 26.1168 29.9516 28.1883C26.0886 32.0512 25.7247 38.0695 28.8039 42.3523C26.9844 42.8282 25.2769 43.7799 23.8773 45.1795C19.8464 49.2104 19.6224 55.6486 23.2055 59.9594C21.4419 60.4353 19.7624 61.387 18.3908 62.7586C14.108 67.0414 14.108 74.0115 18.3908 78.2663L19.6504 79.5259C14.9198 85.2084 12.3725 92.2624 12.3725 99.7363V104.383L0.895676 115.86C-0.19602 116.951 -0.19602 118.715 0.895676 119.807C1.45552 120.367 2.15532 120.618 2.88312 120.618C3.61092 120.618 4.31072 120.339 4.87057 119.807L17.1871 107.49C17.719 106.958 17.9989 106.258 17.9989 105.503V99.7083C17.9989 92.7383 20.6862 86.2161 25.6128 81.2894L39.4969 67.4053L40.8405 66.0617C41.4284 65.4739 42.1842 65.1659 43.0239 65.1659C43.8637 65.1659 44.6195 65.4739 45.2073 66.0617C45.7951 66.6495 46.1031 67.4053 46.1031 68.2451C46.1031 68.9449 45.8791 69.6167 45.4313 70.1765L41.6243 73.8995C40.5326 74.9912 40.5326 76.7547 41.6243 77.8464C42.1842 78.4062 42.884 78.6582 43.6118 78.6582C44.3396 78.6582 45.0394 78.3783 45.5992 77.8464L58.7835 64.6621C59.3714 64.0742 60.1272 63.7663 60.9669 63.7663C61.8067 63.7663 62.5625 64.0742 63.1503 64.6621C64.27 65.7818 64.354 67.5453 63.3742 68.7489L49.938 82.2132C48.8463 83.3049 48.8463 85.0684 49.938 86.1601C50.4978 86.7199 51.1976 86.9719 51.9254 86.9719C52.6532 86.9719 53.353 86.6919 53.9129 86.1601L71.2121 68.8329C71.7999 68.2451 72.5557 67.9372 73.3954 67.9372C74.2352 67.9372 74.991 68.2451 75.5788 68.8329C76.7825 70.0366 76.7825 71.996 75.5788 73.1717L58.2517 90.4709C57.16 91.5626 57.16 93.3261 58.2517 94.4178C59.3434 95.5095 61.1069 95.5095 62.1986 94.4178L75.6628 80.9815C76.8665 80.0298 78.63 80.0858 79.7497 81.2055C80.9533 82.4091 80.9533 84.3686 79.7497 85.5443L60.8549 104.439C59.5113 105.783 59.3993 107.798 60.575 109.282C61.7227 110.765 63.7381 111.129 65.3617 110.149L71.0721 106.678C72.4997 105.811 74.4032 106.202 75.3549 107.574C75.8588 108.274 76.0267 109.142 75.8868 110.009C75.7188 110.849 75.2429 111.605 74.5151 112.081L61.3028 120.926C56.992 123.81 52.0094 125.321 46.8309 125.321H46.8029H37.8174C37.0616 125.321 36.3618 125.629 35.8299 126.133L23.5134 138.449C22.4217 139.541 22.4217 141.305 23.5134 142.396C24.0732 142.956 24.773 143.208 25.5008 143.208C26.2286 143.208 26.9284 142.928 27.4883 142.396L38.9651 130.92H46.7749C46.8029 130.92 46.8029 130.92 46.8309 130.92C53.1291 130.92 59.2034 129.072 64.4379 125.573L67.2652 123.67C73.0315 126.469 79.4697 127.924 85.88 127.924C85.908 127.924 85.908 127.924 85.936 127.924H92.85L107.07 142.144C107.63 142.704 108.33 142.956 109.057 142.956C109.785 142.956 110.485 142.676 111.045 142.144C112.137 141.053 112.137 139.289 111.045 138.198L95.9292 123.25ZM22.2817 66.7335C24.2412 64.7741 27.3483 64.6341 29.4757 66.3696L31.0153 67.9092L29.1958 69.7287L23.4294 75.4951L22.2817 74.3474C20.1823 72.22 20.1823 68.8049 22.2817 66.7335Z" fill="black"/>
<path d="M140.521 105.95C139.793 105.95 139.065 106.258 138.533 106.762C138.002 107.294 137.722 107.994 137.722 108.75C137.722 109.477 138.03 110.205 138.533 110.737C139.065 111.269 139.765 111.549 140.521 111.549C141.277 111.549 141.976 111.241 142.508 110.737C143.04 110.205 143.32 109.505 143.32 108.75C143.32 108.022 143.012 107.294 142.508 106.762C141.976 106.23 141.249 105.95 140.521 105.95Z" fill="black"/>
<path d="M128.288 92.5421L128.316 81.2333C128.316 72.6957 125.825 64.41 121.066 57.3L108.75 38.9371C107.07 36.4178 104.495 34.7383 101.528 34.1784C98.5606 33.6186 95.5654 34.2624 93.0741 35.9979C89.0152 38.8251 87.4197 43.9477 88.8473 48.5104L81.5413 41.2045C80.4496 40.1128 78.6861 40.1128 77.5944 41.2045C76.5027 42.2961 76.5027 44.0597 77.5944 45.1514L93.298 60.855C94.7536 62.3106 96.993 62.4505 98.5886 61.1629C100.212 59.9032 100.604 57.6919 99.5403 55.9283L94.7256 47.9786C93.214 45.4873 93.9139 42.2122 96.2932 40.5606C97.5248 39.6929 99.0084 39.385 100.492 39.6369C101.976 39.9168 103.235 40.7566 104.075 42.0162L116.392 60.3791C120.534 66.5654 122.718 73.7594 122.718 81.1773L122.69 93.6618C122.69 94.4176 122.97 95.1174 123.502 95.6493L131.004 103.151C131.563 103.711 132.263 103.963 132.991 103.963C133.719 103.963 134.419 103.683 134.978 103.151C136.07 102.059 136.07 100.296 134.978 99.2043L128.288 92.5421Z" fill="black"/>
<path d="M72.9477 39.3851C73.6755 39.3851 74.4032 39.0771 74.9351 38.5733C75.467 38.0414 75.7469 37.3416 75.7469 36.5858C75.7469 35.83 75.439 35.1302 74.9351 34.5984C74.4032 34.0665 73.7034 33.7866 72.9477 33.7866C72.2199 33.7866 71.4921 34.0945 70.9602 34.5984C70.4284 35.1302 70.1484 35.83 70.1484 36.5858C70.1484 37.3136 70.4563 38.0414 70.9602 38.5733C71.4921 39.0771 72.2199 39.3851 72.9477 39.3851Z" fill="black"/>
<path d="M100.912 78.0423C102.004 76.9506 102.004 75.1871 100.912 74.0954C99.8201 73.0037 98.0566 73.0037 96.9649 74.0954L95.7333 75.299C90.4987 80.5336 90.4987 89.0432 95.7333 94.2498C96.2931 94.8096 96.9929 95.0615 97.7207 95.0615C98.4485 95.0615 99.1483 94.7816 99.7082 94.2498C100.8 93.1581 100.8 91.3946 99.7082 90.3029C96.657 87.2517 96.657 82.2971 99.7082 79.2459L100.912 78.0423Z" fill="black"/>
<path d="M133.607 15.1157C131.815 15.1157 130.08 15.6196 128.596 16.5433C127.085 15.6196 125.349 15.1157 123.586 15.1157C118.239 15.1157 113.872 19.5665 113.872 24.997C113.872 28.0761 116.084 31.7991 120.674 36.3338C123.754 39.385 126.777 41.7363 126.917 41.8203C127.421 42.2122 128.008 42.4081 128.624 42.4081C129.24 42.4081 129.828 42.2122 130.332 41.8203C130.472 41.7363 133.495 39.385 136.574 36.3338C141.137 31.7991 143.376 28.0761 143.376 24.997C143.32 19.5665 138.953 15.1157 133.607 15.1157ZM128.596 36.0259C123.922 32.135 119.471 27.1804 119.471 24.997C119.471 22.6176 121.318 20.7142 123.586 20.7142C124.705 20.7142 125.769 21.19 126.553 22.0298C127.085 22.6176 127.84 22.9255 128.624 22.9255C129.408 22.9255 130.164 22.5896 130.696 22.0298C131.479 21.19 132.543 20.7142 133.663 20.7142C135.93 20.7142 137.778 22.6456 137.778 24.997C137.722 27.1804 133.271 32.163 128.596 36.0259Z" fill="black"/>
<path d="M13.0444 26.7325C13.5482 27.1244 14.1361 27.3204 14.7519 27.3204C15.3677 27.3204 15.9555 27.1244 16.4594 26.7325C16.5714 26.6206 19.5945 24.2972 22.6737 21.2461C27.2364 16.7113 29.4758 12.9884 29.4758 9.90924C29.4758 4.45076 25.109 0 19.7625 0C17.971 0 16.2355 0.503859 14.7239 1.4276C13.2403 0.503859 11.5048 0 9.71329 0C4.36678 0 0 4.45076 0 9.88124C0 12.9604 2.21138 16.6833 6.8021 21.2181C9.88124 24.2972 12.9044 26.6206 13.0444 26.7325ZM9.71329 5.59844C10.833 5.59844 11.8967 6.07431 12.6805 6.91407C13.2123 7.50191 13.9681 7.80982 14.7239 7.80982C15.4797 7.80982 16.2635 7.47391 16.7673 6.91407C17.5511 6.07431 18.6148 5.59844 19.7345 5.59844C22.0019 5.59844 23.8493 7.5299 23.8493 9.88124C23.8493 12.0646 19.3986 17.0193 14.7239 20.9102C10.0492 17.0472 5.59844 12.0926 5.59844 9.88124C5.59844 7.5299 7.44592 5.59844 9.71329 5.59844Z" fill="black"/>
</g>
<defs>
<clipPath id="clip0">
<rect width="143.32" height="143.32" fill="white"/>
</clipPath>
</defs>
</svg>
