<svg width="930" height="225" viewBox="0 0 930 225" fill="none" xmlns="http://www.w3.org/2000/svg">
<path d="M285.881 169.7C287.761 169.7 289.301 169.64 290.501 169.52V170.72C289.501 171.12 288.521 171.9 287.561 173.06C286.641 174.18 285.861 175.78 285.221 177.86L274.661 212.12C274.221 212.08 273.521 212.06 272.561 212.06C271.601 212.06 270.901 212.08 270.461 212.12L261.641 185.36L252.761 212.12C252.321 212.08 251.621 212.06 250.661 212.06C249.701 212.06 249.001 212.08 248.561 212.12L235.121 174.56C234.641 173.24 234.061 172.28 233.381 171.68C232.701 171.08 232.021 170.76 231.341 170.72V169.52C233.741 169.64 236.721 169.7 240.281 169.7C243.641 169.7 246.101 169.64 247.661 169.52V170.72C246.261 170.92 245.561 171.7 245.561 173.06C245.561 173.7 245.741 174.6 246.101 175.76L254.861 201.14L260.921 183.26L257.861 173.96C257.461 172.8 256.981 172 256.421 171.56C255.901 171.08 255.281 170.8 254.561 170.72V169.52C256.801 169.64 259.661 169.7 263.141 169.7C267.061 169.7 269.941 169.64 271.781 169.52V170.72C270.341 170.76 269.301 170.94 268.661 171.26C268.021 171.54 267.701 172.1 267.701 172.94C267.701 173.66 267.901 174.6 268.301 175.76L276.521 200.84L282.221 182.72C283.141 179.72 283.601 177.4 283.601 175.76C283.601 174.04 283.161 172.8 282.281 172.04C281.441 171.24 280.161 170.8 278.441 170.72V169.52C281.161 169.64 283.641 169.7 285.881 169.7ZM304.988 207.92C308.268 207.92 310.908 206.32 312.908 203.12L313.988 203.48C313.188 206.08 311.748 208.3 309.668 210.14C307.628 211.94 305.068 212.84 301.988 212.84C297.748 212.84 294.368 211.5 291.848 208.82C289.368 206.1 288.128 202.1 288.128 196.82C288.128 191.42 289.468 187.3 292.148 184.46C294.828 181.58 298.388 180.14 302.828 180.14C310.348 180.14 314.108 184.58 314.108 193.46H297.248C297.208 194.06 297.188 195 297.188 196.28C297.188 198.92 297.548 201.12 298.268 202.88C299.028 204.64 299.988 205.92 301.148 206.72C302.348 207.52 303.628 207.92 304.988 207.92ZM302.468 181.4C301.028 181.4 299.828 182.3 298.868 184.1C297.948 185.86 297.368 188.6 297.128 192.32H306.548C306.628 189.16 306.308 186.56 305.588 184.52C304.908 182.44 303.868 181.4 302.468 181.4ZM364.463 206.96C364.983 208.28 365.583 209.24 366.263 209.84C366.943 210.44 367.603 210.76 368.243 210.8V212C365.843 211.88 362.803 211.82 359.123 211.82C355.043 211.82 352.003 211.88 350.003 212V210.8C351.523 210.72 352.603 210.54 353.243 210.26C353.883 209.94 354.203 209.4 354.203 208.64C354.203 207.92 353.963 206.96 353.483 205.76L349.883 195.92H336.803L335.243 200.06C334.123 202.94 333.563 205.16 333.563 206.72C333.563 208.2 334.003 209.24 334.883 209.84C335.803 210.4 337.143 210.72 338.903 210.8V212C336.183 211.88 333.703 211.82 331.463 211.82C329.623 211.82 328.103 211.88 326.903 212V210.8C328.863 210.44 330.583 208.34 332.063 204.5L345.743 169.4C346.183 169.44 346.883 169.46 347.843 169.46C348.803 169.46 349.483 169.44 349.883 169.4L364.463 206.96ZM349.463 194.72L343.523 178.52L337.283 194.72H349.463ZM384.862 180.14C386.342 180.14 387.742 180.3 389.062 180.62C390.382 180.94 391.482 181.38 392.362 181.94C393.402 182.58 394.202 183.4 394.762 184.4C395.362 185.36 395.662 186.42 395.662 187.58C395.662 188.98 395.222 190.14 394.342 191.06C393.462 191.94 392.322 192.38 390.922 192.38C389.522 192.38 388.402 191.98 387.562 191.18C386.722 190.38 386.302 189.3 386.302 187.94C386.302 186.74 386.682 185.7 387.442 184.82C388.202 183.94 389.142 183.34 390.262 183.02C389.942 182.58 389.442 182.24 388.762 182C388.122 181.72 387.422 181.58 386.662 181.58C384.262 181.58 382.382 182.9 381.022 185.54C379.702 188.14 379.042 191.56 379.042 195.8C379.042 200.08 379.802 203.16 381.322 205.04C382.842 206.92 384.742 207.86 387.022 207.86C388.382 207.86 389.742 207.5 391.102 206.78C392.502 206.06 393.762 204.8 394.882 203L395.902 203.36C395.102 205.96 393.702 208.2 391.702 210.08C389.702 211.92 387.122 212.84 383.962 212.84C379.842 212.84 376.482 211.48 373.882 208.76C371.282 206.04 369.982 202 369.982 196.64C369.982 193.12 370.622 190.12 371.902 187.64C373.182 185.16 374.942 183.3 377.182 182.06C379.422 180.78 381.982 180.14 384.862 180.14ZM411.208 180.98H418.288V182.18H411.208V206.42C411.208 207.62 411.408 208.48 411.808 209C412.248 209.48 412.928 209.72 413.848 209.72C415.568 209.72 416.928 208.52 417.928 206.12L418.948 206.66C417.428 210.78 414.688 212.84 410.728 212.84C408.088 212.84 406.088 212.16 404.728 210.8C403.888 209.96 403.308 208.92 402.988 207.68C402.708 206.4 402.568 204.66 402.568 202.46V182.18H397.528V180.98H402.568V173.06C405.888 173.06 408.768 172.42 411.208 171.14V180.98ZM450.002 205.46C450.002 207.3 450.282 208.64 450.842 209.48C451.442 210.32 452.442 210.74 453.842 210.74V212C452.602 211.88 451.362 211.82 450.122 211.82C446.642 211.82 443.722 212.1 441.362 212.66V207.26C439.522 210.98 436.302 212.84 431.702 212.84C428.702 212.84 426.522 212.06 425.162 210.5C424.522 209.74 424.042 208.76 423.722 207.56C423.442 206.32 423.302 204.7 423.302 202.7V187.52C423.302 185.68 423.002 184.34 422.402 183.5C421.842 182.66 420.862 182.24 419.462 182.24V180.98C420.702 181.1 421.942 181.16 423.182 181.16C426.662 181.16 429.582 180.88 431.942 180.32V205.16C431.942 206.84 432.182 208.1 432.662 208.94C433.182 209.78 434.142 210.2 435.542 210.2C437.142 210.2 438.502 209.54 439.622 208.22C440.782 206.86 441.362 205.2 441.362 203.24V187.52C441.362 185.68 441.062 184.34 440.462 183.5C439.902 182.66 438.922 182.24 437.522 182.24V180.98C438.802 181.1 440.042 181.16 441.242 181.16C444.722 181.16 447.642 180.88 450.002 180.32V205.46ZM464.428 212.42C461.868 212.42 459.948 211.76 458.668 210.44C457.428 209.12 456.808 207.38 456.808 205.22C456.808 203.42 457.268 201.94 458.188 200.78C459.148 199.58 460.288 198.66 461.608 198.02C462.968 197.38 464.688 196.7 466.768 195.98C468.968 195.22 470.568 194.54 471.568 193.94C472.608 193.3 473.128 192.44 473.128 191.36V186.68C473.128 185 472.728 183.7 471.928 182.78C471.168 181.82 469.968 181.34 468.328 181.34C466.408 181.34 464.948 181.82 463.948 182.78C465.068 183.18 465.928 183.78 466.528 184.58C467.168 185.38 467.488 186.32 467.488 187.4C467.488 188.76 467.028 189.84 466.108 190.64C465.188 191.44 464.068 191.84 462.748 191.84C461.348 191.84 460.268 191.4 459.508 190.52C458.748 189.64 458.368 188.54 458.368 187.22C458.368 186.1 458.628 185.16 459.148 184.4C459.708 183.6 460.548 182.86 461.668 182.18C462.748 181.54 464.068 181.04 465.628 180.68C467.228 180.32 468.968 180.14 470.848 180.14C472.808 180.14 474.508 180.34 475.948 180.74C477.388 181.14 478.588 181.82 479.548 182.78C480.428 183.66 481.008 184.74 481.288 186.02C481.608 187.3 481.768 189.04 481.768 191.24V207.56C481.768 208.52 481.848 209.2 482.008 209.6C482.208 210 482.568 210.2 483.088 210.2C483.688 210.2 484.408 209.86 485.248 209.18L485.848 210.2C484.048 211.68 481.848 212.42 479.248 212.42C477.048 212.42 475.508 211.98 474.628 211.1C473.748 210.22 473.288 209.04 473.248 207.56C471.248 210.8 468.308 212.42 464.428 212.42ZM469.048 208.58C470.608 208.58 471.968 207.76 473.128 206.12V193.82C472.648 194.62 471.628 195.5 470.068 196.46C468.508 197.46 467.328 198.46 466.528 199.46C465.728 200.46 465.328 201.9 465.328 203.78C465.328 205.42 465.668 206.64 466.348 207.44C467.028 208.2 467.928 208.58 469.048 208.58ZM499.803 206.42C499.803 208.06 500.083 209.2 500.643 209.84C501.203 210.44 502.203 210.74 503.643 210.74V212C499.483 211.84 496.803 211.76 495.603 211.76C494.243 211.76 491.483 211.84 487.323 212V210.74C488.723 210.74 489.703 210.44 490.263 209.84C490.863 209.2 491.163 208.06 491.163 206.42V172.22C491.163 170.38 490.863 169.04 490.263 168.2C489.703 167.36 488.723 166.94 487.323 166.94V165.68C488.603 165.8 489.843 165.86 491.043 165.86C494.523 165.86 497.443 165.58 499.803 165.02V206.42ZM518.787 206.42C518.787 208.06 519.067 209.2 519.627 209.84C520.187 210.44 521.187 210.74 522.627 210.74V212C518.467 211.84 515.787 211.76 514.587 211.76C513.227 211.76 510.467 211.84 506.307 212V210.74C507.707 210.74 508.687 210.44 509.247 209.84C509.847 209.2 510.147 208.06 510.147 206.42V172.22C510.147 170.38 509.847 169.04 509.247 168.2C508.687 167.36 507.707 166.94 506.307 166.94V165.68C507.587 165.8 508.827 165.86 510.027 165.86C513.507 165.86 516.427 165.58 518.787 165.02V206.42ZM549.9 181.16C551.9 181.16 553.44 181.1 554.52 180.98V182.18C553.68 182.42 552.92 182.94 552.24 183.74C551.6 184.5 550.98 185.7 550.38 187.34L539.64 217.52C538.84 219.6 537.96 221.02 537 221.78C535.84 222.78 534.1 223.28 531.78 223.28C530.1 223.28 528.58 222.86 527.22 222.02C525.9 221.22 525.24 220.04 525.24 218.48C525.24 217.24 525.68 216.24 526.56 215.48C527.44 214.76 528.6 214.4 530.04 214.4C531.4 214.4 532.48 214.72 533.28 215.36C534.12 216.04 534.54 216.98 534.54 218.18C534.54 219.02 534.28 219.78 533.76 220.46C533.24 221.18 532.5 221.72 531.54 222.08C531.82 222.12 532.28 222.14 532.92 222.14C535.4 222.14 537.22 220.56 538.38 217.4L539.34 214.52L526.62 185.6C525.98 184.24 525.36 183.34 524.76 182.9C524.16 182.46 523.54 182.24 522.9 182.24V180.98C525.54 181.22 528.28 181.34 531.12 181.34C533.48 181.34 536.26 181.22 539.46 180.98V182.24C538.18 182.24 537.22 182.34 536.58 182.54C535.98 182.7 535.68 183.16 535.68 183.92C535.68 184.36 535.82 184.92 536.1 185.6L543.42 203.3L547.56 191.78C548.2 189.9 548.52 188.3 548.52 186.98C548.52 184.06 547.04 182.46 544.08 182.18V180.98C545.96 181.1 547.9 181.16 549.9 181.16ZM590.978 168.68C593.378 168.68 595.418 169.02 597.098 169.7C598.778 170.38 600.418 171.34 602.018 172.58C602.458 172.94 602.838 173.12 603.158 173.12C603.958 173.12 604.478 171.92 604.718 169.52H606.098C605.938 172.24 605.858 177.08 605.858 184.04H604.478C604.118 181.08 603.638 178.82 603.038 177.26C602.438 175.7 601.418 174.34 599.978 173.18C598.978 172.22 597.818 171.5 596.498 171.02C595.178 170.5 593.798 170.24 592.358 170.24C588.318 170.24 585.318 172.22 583.358 176.18C581.398 180.1 580.418 185 580.418 190.88C580.418 196.72 581.438 201.6 583.478 205.52C585.518 209.44 588.558 211.4 592.598 211.4C593.958 211.4 595.298 211.16 596.618 210.68C597.978 210.16 599.118 209.42 600.038 208.46C601.518 207.34 602.538 205.94 603.098 204.26C603.698 202.58 604.158 200.12 604.478 196.88H605.858C605.858 204.12 605.938 209.16 606.098 212H604.718C604.598 210.72 604.418 209.82 604.178 209.3C603.978 208.74 603.678 208.46 603.278 208.46C602.958 208.46 602.538 208.62 602.018 208.94C600.218 210.22 598.498 211.2 596.858 211.88C595.218 212.52 593.238 212.84 590.918 212.84C586.678 212.84 582.958 211.98 579.758 210.26C576.598 208.54 574.138 206.06 572.378 202.82C570.618 199.54 569.738 195.64 569.738 191.12C569.738 186.72 570.638 182.82 572.438 179.42C574.238 176.02 576.738 173.38 579.938 171.5C583.178 169.62 586.858 168.68 590.978 168.68ZM618.823 212.42C616.263 212.42 614.343 211.76 613.063 210.44C611.823 209.12 611.203 207.38 611.203 205.22C611.203 203.42 611.663 201.94 612.583 200.78C613.543 199.58 614.683 198.66 616.003 198.02C617.363 197.38 619.083 196.7 621.163 195.98C623.363 195.22 624.963 194.54 625.963 193.94C627.003 193.3 627.523 192.44 627.523 191.36V186.68C627.523 185 627.123 183.7 626.323 182.78C625.563 181.82 624.363 181.34 622.723 181.34C620.803 181.34 619.343 181.82 618.343 182.78C619.463 183.18 620.323 183.78 620.923 184.58C621.563 185.38 621.883 186.32 621.883 187.4C621.883 188.76 621.423 189.84 620.503 190.64C619.583 191.44 618.463 191.84 617.143 191.84C615.743 191.84 614.663 191.4 613.903 190.52C613.143 189.64 612.763 188.54 612.763 187.22C612.763 186.1 613.023 185.16 613.543 184.4C614.103 183.6 614.943 182.86 616.063 182.18C617.143 181.54 618.463 181.04 620.023 180.68C621.623 180.32 623.363 180.14 625.243 180.14C627.203 180.14 628.903 180.34 630.343 180.74C631.783 181.14 632.983 181.82 633.943 182.78C634.823 183.66 635.403 184.74 635.683 186.02C636.003 187.3 636.163 189.04 636.163 191.24V207.56C636.163 208.52 636.243 209.2 636.403 209.6C636.603 210 636.963 210.2 637.483 210.2C638.083 210.2 638.803 209.86 639.643 209.18L640.243 210.2C638.443 211.68 636.243 212.42 633.643 212.42C631.443 212.42 629.903 211.98 629.023 211.1C628.143 210.22 627.683 209.04 627.643 207.56C625.643 210.8 622.703 212.42 618.823 212.42ZM623.443 208.58C625.003 208.58 626.363 207.76 627.523 206.12V193.82C627.043 194.62 626.023 195.5 624.463 196.46C622.903 197.46 621.723 198.46 620.923 199.46C620.123 200.46 619.723 201.9 619.723 203.78C619.723 205.42 620.063 206.64 620.743 207.44C621.423 208.2 622.323 208.58 623.443 208.58ZM662.598 180.14C664.398 180.14 665.758 180.68 666.678 181.76C667.598 182.84 668.058 184.14 668.058 185.66C668.058 187.14 667.618 188.36 666.738 189.32C665.898 190.24 664.778 190.7 663.378 190.7C662.018 190.7 660.938 190.36 660.138 189.68C659.338 188.96 658.938 188.02 658.938 186.86C658.938 184.94 659.818 183.38 661.578 182.18C661.418 182.14 661.178 182.12 660.858 182.12C660.458 182.12 660.138 182.16 659.898 182.24C658.378 182.48 657.078 183.4 655.998 185C654.958 186.6 654.438 188.24 654.438 189.92V205.82C654.438 207.66 654.878 208.94 655.758 209.66C656.678 210.38 658.118 210.74 660.078 210.74V212C659.518 212 659.058 211.98 658.698 211.94C654.618 211.82 651.898 211.76 650.538 211.76C649.458 211.76 646.998 211.82 643.158 211.94C642.838 211.98 642.438 212 641.958 212V210.74C643.398 210.74 644.398 210.44 644.958 209.84C645.518 209.2 645.798 208.06 645.798 206.42V187.52C645.798 185.68 645.518 184.34 644.958 183.5C644.398 182.66 643.398 182.24 641.958 182.24V180.98C643.238 181.1 644.478 181.16 645.678 181.16C649.238 181.16 652.158 180.88 654.438 180.32V185.9C655.198 184.18 656.298 182.8 657.738 181.76C659.178 180.68 660.798 180.14 662.598 180.14ZM686.785 207.92C690.065 207.92 692.705 206.32 694.705 203.12L695.785 203.48C694.985 206.08 693.545 208.3 691.465 210.14C689.425 211.94 686.865 212.84 683.785 212.84C679.545 212.84 676.165 211.5 673.645 208.82C671.165 206.1 669.925 202.1 669.925 196.82C669.925 191.42 671.265 187.3 673.945 184.46C676.625 181.58 680.185 180.14 684.625 180.14C692.145 180.14 695.905 184.58 695.905 193.46H679.045C679.005 194.06 678.985 195 678.985 196.28C678.985 198.92 679.345 201.12 680.065 202.88C680.825 204.64 681.785 205.92 682.945 206.72C684.145 207.52 685.425 207.92 686.785 207.92ZM684.265 181.4C682.825 181.4 681.625 182.3 680.665 184.1C679.745 185.86 679.165 188.6 678.925 192.32H688.345C688.425 189.16 688.105 186.56 687.385 184.52C686.705 182.44 685.665 181.4 684.265 181.4Z" fill="#014127"/>
<g clip-path="url(#clip0)">
<path d="M524.607 17.915C522.619 17.915 520.856 18.7548 519.596 20.1264C518.337 18.7548 516.545 17.915 514.586 17.915C510.779 17.915 507.672 21.0782 507.672 24.9971C507.672 30.4835 519.596 39.609 519.596 39.609C519.596 39.609 531.521 30.4835 531.521 24.9971C531.521 21.0782 528.414 17.915 524.607 17.915Z" fill="#666665"/>
<path d="M410.763 2.79932C408.775 2.79932 407.012 3.63908 405.752 5.0107C404.464 3.63908 402.701 2.79932 400.713 2.79932C396.906 2.79932 393.799 5.96243 393.799 9.88134C393.799 15.3678 405.724 24.4933 405.724 24.4933C405.724 24.4933 417.649 15.3678 417.649 9.88134C417.677 5.96243 414.57 2.79932 410.763 2.79932Z" fill="#FFA401"/>
<path d="M500.002 140.269L531.521 108.722L516.489 93.6898L516.517 81.2053C516.517 73.2555 514.166 65.4457 509.743 58.8395L497.426 40.4766C494.823 36.5857 489.505 35.606 485.67 38.3212C482.059 40.8685 481.163 45.8791 483.458 49.6581L488.161 57.4399C488.889 58.6436 487.293 59.9312 486.285 58.9235L451.603 24.2412C448.412 21.0501 443.149 20.8821 439.93 24.0732C436.823 27.1244 436.711 32.023 439.51 35.2421L434.444 30.1755C431.281 27.0124 426.186 26.9844 422.995 30.0635C419.692 33.2547 419.804 38.6572 423.023 41.8763L427.922 46.7749C424.703 43.9757 419.804 44.1156 416.753 47.1948C413.562 50.4139 413.73 55.6484 416.921 58.8675L422.407 64.354C419.188 61.5548 414.318 61.6947 411.266 64.7459C408.075 67.937 408.075 73.1155 411.266 76.3066L437.831 102.871L448.496 113.536C456.026 121.066 466.243 125.293 476.88 125.265H484.942L500.002 140.269Z" fill="#FCBE59"/>
<path d="M416.473 140.521L428.79 128.204H437.775C443.513 128.204 449.084 126.525 453.843 123.333L467.055 114.488C469.854 112.612 470.554 108.806 468.622 106.062C466.803 103.459 463.304 102.731 460.589 104.383L454.878 107.854C454.011 108.386 453.087 107.238 453.815 106.51L472.709 87.6154C475.005 85.3201 475.005 81.5971 472.709 79.3018C470.414 77.0064 466.691 77.0064 464.396 79.3018L451.183 92.4581L455.326 88.3432L468.538 75.1309C470.834 72.8356 470.834 69.1126 468.538 66.8172C466.243 64.5219 462.52 64.5219 460.225 66.8172L447.012 80.0576L442.898 84.2004L456.11 70.9881C458.405 68.6927 458.405 64.9698 456.11 62.6744C453.815 60.379 450.092 60.379 447.796 62.6744L434.584 75.8867L434.612 75.9147L438.055 72.4717C440.35 70.1763 440.35 66.4533 438.055 64.158C435.76 61.8626 432.037 61.8626 429.741 64.158L422.183 71.7159L428.426 65.4736L414.542 79.3577C409.139 84.7602 406.088 92.1222 406.116 99.764V105.558L393.799 117.875L416.473 140.521Z" fill="#FCBE59"/>
<path d="M486.929 123.25C486.397 122.718 485.698 122.438 484.942 122.438H476.88C476.852 122.438 476.852 122.438 476.824 122.438C472.373 122.438 467.922 121.626 463.724 120.059L468.566 116.812C470.554 115.496 471.869 113.452 472.317 111.101C472.765 108.75 472.233 106.398 470.862 104.439C469.154 102.004 466.411 100.688 463.64 100.688C463.584 100.688 463.556 100.688 463.5 100.688L474.641 89.5471C478.028 86.1601 478.028 80.6736 474.641 77.2866C473.829 76.4748 472.849 75.831 471.813 75.3831C472.597 74.0675 472.989 72.5559 472.989 70.9883C472.989 68.665 472.093 66.4816 470.442 64.858C468.79 63.2065 466.635 62.3107 464.311 62.3107C462.744 62.3107 461.232 62.7306 459.917 63.4864C459.497 62.4507 458.853 61.471 458.013 60.6592C456.362 59.0077 454.206 58.1119 451.883 58.1119C449.56 58.1119 447.376 59.0077 445.753 60.6592L441.75 64.6621C441.33 63.7104 440.742 62.8706 439.986 62.1148C438.335 60.4633 436.179 59.5675 433.856 59.5675C431.533 59.5675 429.349 60.4633 427.726 62.1148L425.962 63.8783L418.74 56.7123C416.641 54.6129 416.641 51.1978 418.74 49.0984C420.7 47.139 423.807 46.999 425.934 48.7345L432.932 55.7326C433.492 56.2924 434.192 56.5443 434.92 56.5443C435.647 56.5443 436.347 56.2644 436.907 55.7326C437.999 54.6409 437.999 52.8774 436.907 51.7857L424.87 39.749C422.771 37.6496 422.771 34.2346 424.87 32.1352C426.97 30.0357 430.385 30.0357 432.484 32.1352L453.59 53.2973C454.15 53.8571 454.85 54.109 455.578 54.109C456.306 54.109 457.006 53.8291 457.565 53.2973C458.657 52.2056 458.657 50.4421 457.565 49.3504L441.526 33.2548C439.818 31.1554 439.93 28.0203 441.89 26.0609C443.989 23.9614 447.404 23.9614 449.504 26.0609L455.382 31.9392C456.474 33.0309 458.237 33.0309 459.329 31.9392C460.421 30.8475 460.421 29.084 459.329 27.9923L453.451 22.114C449.168 17.8312 442.198 17.8312 437.943 22.114C436.515 23.5416 435.591 25.2491 435.116 27.0406C433.268 25.697 431.057 24.9692 428.705 24.9692C425.766 24.9692 423.023 26.1168 420.952 28.1883C417.089 32.0512 416.725 38.0695 419.804 42.3523C417.984 42.8282 416.277 43.7799 414.877 45.1795C410.846 49.2104 410.622 55.6486 414.205 59.9594C412.442 60.4353 410.762 61.387 409.391 62.7586C405.108 67.0414 405.108 74.0115 409.391 78.2663L410.65 79.5259C405.92 85.2084 403.372 92.2624 403.372 99.7363V104.383L391.896 115.86C390.804 116.951 390.804 118.715 391.896 119.807C392.456 120.367 393.155 120.618 393.883 120.618C394.611 120.618 395.311 120.339 395.871 119.807L408.187 107.49C408.719 106.958 408.999 106.258 408.999 105.503V99.7083C408.999 92.7383 411.686 86.2161 416.613 81.2894L430.497 67.4053L431.841 66.0617C432.428 65.4739 433.184 65.1659 434.024 65.1659C434.864 65.1659 435.619 65.4739 436.207 66.0617C436.795 66.6495 437.103 67.4053 437.103 68.2451C437.103 68.9449 436.879 69.6167 436.431 70.1765L432.624 73.8995C431.533 74.9912 431.533 76.7547 432.624 77.8464C433.184 78.4062 433.884 78.6582 434.612 78.6582C435.34 78.6582 436.039 78.3783 436.599 77.8464L449.784 64.6621C450.371 64.0742 451.127 63.7663 451.967 63.7663C452.807 63.7663 453.562 64.0742 454.15 64.6621C455.27 65.7818 455.354 67.5453 454.374 68.7489L440.938 82.2132C439.846 83.3049 439.846 85.0684 440.938 86.1601C441.498 86.7199 442.198 86.9719 442.925 86.9719C443.653 86.9719 444.353 86.6919 444.913 86.1601L462.212 68.8329C462.8 68.2451 463.556 67.9372 464.395 67.9372C465.235 67.9372 465.991 68.2451 466.579 68.8329C467.783 70.0366 467.783 71.996 466.579 73.1717L449.252 90.4709C448.16 91.5626 448.16 93.3261 449.252 94.4178C450.343 95.5095 452.107 95.5095 453.199 94.4178L466.663 80.9815C467.866 80.0298 469.63 80.0858 470.75 81.2055C471.953 82.4091 471.953 84.3686 470.75 85.5443L451.855 104.439C450.511 105.783 450.399 107.798 451.575 109.282C452.723 110.765 454.738 111.129 456.362 110.149L462.072 106.678C463.5 105.811 465.403 106.202 466.355 107.574C466.859 108.274 467.027 109.142 466.887 110.009C466.719 110.849 466.243 111.605 465.515 112.081L452.303 120.926C447.992 123.81 443.009 125.321 437.831 125.321H437.803H428.817C428.062 125.321 427.362 125.629 426.83 126.133L414.513 138.449C413.422 139.541 413.422 141.305 414.513 142.396C415.073 142.956 415.773 143.208 416.501 143.208C417.229 143.208 417.928 142.928 418.488 142.396L429.965 130.92H437.775C437.803 130.92 437.803 130.92 437.831 130.92C444.129 130.92 450.203 129.072 455.438 125.573L458.265 123.67C464.032 126.469 470.47 127.924 476.88 127.924C476.908 127.924 476.908 127.924 476.936 127.924H483.85L498.07 142.144C498.63 142.704 499.33 142.956 500.057 142.956C500.785 142.956 501.485 142.676 502.045 142.144C503.137 141.053 503.137 139.289 502.045 138.198L486.929 123.25ZM413.282 66.7335C415.241 64.7741 418.348 64.6341 420.476 66.3696L422.015 67.9092L420.196 69.7287L414.429 75.4951L413.282 74.3474C411.182 72.22 411.182 68.8049 413.282 66.7335Z" fill="black"/>
<path d="M531.521 105.95C530.793 105.95 530.065 106.258 529.533 106.762C529.002 107.294 528.722 107.994 528.722 108.75C528.722 109.477 529.03 110.205 529.533 110.737C530.065 111.269 530.765 111.549 531.521 111.549C532.277 111.549 532.976 111.241 533.508 110.737C534.04 110.205 534.32 109.505 534.32 108.75C534.32 108.022 534.012 107.294 533.508 106.762C532.976 106.23 532.249 105.95 531.521 105.95Z" fill="black"/>
<path d="M519.288 92.5421L519.316 81.2333C519.316 72.6957 516.825 64.41 512.066 57.3L499.75 38.9371C498.07 36.4178 495.495 34.7383 492.528 34.1784C489.561 33.6186 486.565 34.2624 484.074 35.9979C480.015 38.8251 478.42 43.9477 479.847 48.5104L472.541 41.2045C471.45 40.1128 469.686 40.1128 468.594 41.2045C467.503 42.2961 467.503 44.0597 468.594 45.1514L484.298 60.855C485.754 62.3106 487.993 62.4505 489.589 61.1629C491.212 59.9032 491.604 57.6919 490.54 55.9283L485.726 47.9786C484.214 45.4873 484.914 42.2122 487.293 40.5606C488.525 39.6929 490.008 39.385 491.492 39.6369C492.976 39.9168 494.235 40.7566 495.075 42.0162L507.392 60.3791C511.534 66.5654 513.718 73.7594 513.718 81.1773L513.69 93.6618C513.69 94.4176 513.97 95.1174 514.502 95.6493L522.004 103.151C522.563 103.711 523.263 103.963 523.991 103.963C524.719 103.963 525.419 103.683 525.978 103.151C527.07 102.059 527.07 100.296 525.978 99.2043L519.288 92.5421Z" fill="black"/>
<path d="M463.948 39.3851C464.675 39.3851 465.403 39.0771 465.935 38.5733C466.467 38.0414 466.747 37.3416 466.747 36.5858C466.747 35.83 466.439 35.1302 465.935 34.5984C465.403 34.0665 464.703 33.7866 463.948 33.7866C463.22 33.7866 462.492 34.0945 461.96 34.5984C461.428 35.1302 461.148 35.83 461.148 36.5858C461.148 37.3136 461.456 38.0414 461.96 38.5733C462.492 39.0771 463.22 39.3851 463.948 39.3851Z" fill="black"/>
<path d="M491.912 78.0423C493.004 76.9506 493.004 75.1871 491.912 74.0954C490.82 73.0037 489.057 73.0037 487.965 74.0954L486.733 75.299C481.499 80.5336 481.499 89.0432 486.733 94.2498C487.293 94.8096 487.993 95.0615 488.721 95.0615C489.449 95.0615 490.148 94.7816 490.708 94.2498C491.8 93.1581 491.8 91.3946 490.708 90.3029C487.657 87.2517 487.657 82.2971 490.708 79.2459L491.912 78.0423Z" fill="black"/>
<path d="M524.607 15.1157C522.815 15.1157 521.08 15.6196 519.596 16.5433C518.085 15.6196 516.349 15.1157 514.586 15.1157C509.239 15.1157 504.872 19.5665 504.872 24.997C504.872 28.0761 507.084 31.7991 511.674 36.3338C514.754 39.385 517.777 41.7363 517.917 41.8203C518.421 42.2122 519.008 42.4081 519.624 42.4081C520.24 42.4081 520.828 42.2122 521.332 41.8203C521.472 41.7363 524.495 39.385 527.574 36.3338C532.137 31.7991 534.376 28.0761 534.376 24.997C534.32 19.5665 529.953 15.1157 524.607 15.1157ZM519.596 36.0259C514.922 32.135 510.471 27.1804 510.471 24.997C510.471 22.6176 512.318 20.7142 514.586 20.7142C515.705 20.7142 516.769 21.19 517.553 22.0298C518.085 22.6176 518.84 22.9255 519.624 22.9255C520.408 22.9255 521.164 22.5896 521.696 22.0298C522.479 21.19 523.543 20.7142 524.663 20.7142C526.93 20.7142 528.778 22.6456 528.778 24.997C528.722 27.1804 524.271 32.163 519.596 36.0259Z" fill="black"/>
<path d="M404.044 26.7325C404.548 27.1244 405.136 27.3204 405.752 27.3204C406.368 27.3204 406.956 27.1244 407.459 26.7325C407.571 26.6206 410.595 24.2972 413.674 21.2461C418.236 16.7113 420.476 12.9884 420.476 9.90924C420.476 4.45076 416.109 0 410.762 0C408.971 0 407.235 0.503859 405.724 1.4276C404.24 0.503859 402.505 0 400.713 0C395.367 0 391 4.45076 391 9.88124C391 12.9604 393.211 16.6833 397.802 21.2181C400.881 24.2972 403.904 26.6206 404.044 26.7325ZM400.713 5.59844C401.833 5.59844 402.897 6.07431 403.68 6.91407C404.212 7.50191 404.968 7.80982 405.724 7.80982C406.48 7.80982 407.263 7.47391 407.767 6.91407C408.551 6.07431 409.615 5.59844 410.734 5.59844C413.002 5.59844 414.849 7.5299 414.849 9.88124C414.849 12.0646 410.399 17.0193 405.724 20.9102C401.049 17.0472 396.598 12.0926 396.598 9.88124C396.598 7.5299 398.446 5.59844 400.713 5.59844Z" fill="black"/>
</g>
<defs>
<clipPath id="clip0">
<rect width="143.32" height="143.32" fill="white" transform="translate(391)"/>
</clipPath>
</defs>
</svg>
