<svg width="144" height="152" viewBox="0 0 144 152" fill="none" xmlns="http://www.w3.org/2000/svg">
<g clip-path="url(#clip0)">
<path d="M96.2998 20.2151H77.1519V31.906H96.2998V20.2151Z" fill="#666665"/>
<path d="M76.6761 20.215H96.8319C100.555 20.215 103.55 17.0481 103.55 13.1117C103.55 9.17522 100.555 6.0083 96.8319 6.0083H76.6761C72.9529 6.0083 69.9575 9.17522 69.9575 13.1117C69.9575 17.0185 72.9529 20.215 76.6761 20.215Z" fill="#666665"/>
<path d="M86.782 145.53C116.467 145.53 140.531 120.088 140.531 88.7033C140.531 57.3187 116.467 31.8765 86.782 31.8765C57.0973 31.8765 33.0332 57.3187 33.0332 88.7033C33.0332 120.088 57.0973 145.53 86.782 145.53Z" fill="#FFA401"/>
<path d="M86.7819 131.649C109.215 131.649 127.401 112.422 127.401 88.7033C127.401 64.985 109.215 45.7576 86.7819 45.7576C64.3483 45.7576 46.1624 64.985 46.1624 88.7033C46.1624 112.422 64.3483 131.649 86.7819 131.649Z" fill="#FCBE59"/>
<path d="M86.782 94.9483C90.0442 94.9483 92.6888 92.1523 92.6888 88.7033C92.6888 85.2542 90.0442 82.4583 86.782 82.4583C83.5198 82.4583 80.8752 85.2542 80.8752 88.7033C80.8752 92.1523 83.5198 94.9483 86.782 94.9483Z" fill="#FCBE59"/>
<path d="M143.05 82.7838C141.762 69.1098 135.968 56.2054 126.757 46.4678C118.891 38.151 109.233 32.7939 99.0993 30.4261V22.8788C103.242 21.7837 106.322 17.8176 106.322 13.1117C106.322 7.57697 102.039 3.04858 96.8037 3.04858H76.648C71.413 3.04858 67.13 7.57697 67.13 13.1117C67.13 17.8176 70.2093 21.7837 74.3524 22.8788V30.4261C64.2466 32.8235 54.6446 38.151 46.7782 46.4678C45.0706 48.2733 43.4749 50.1971 42.0192 52.1801C41.9352 52.1801 41.8792 52.1801 41.7953 52.1801H21.8914C20.3517 52.1801 19.092 53.512 19.092 55.1399C19.092 56.7677 20.3517 58.0996 21.8914 58.0996H38.24C36.1964 61.7401 34.5448 65.5581 33.285 69.465H2.79941C1.25974 69.465 0 70.7968 0 72.4247C0 74.0526 1.25974 75.3844 2.79941 75.3844H31.6894C30.8775 79.1433 30.4296 82.9318 30.2897 86.7498H17.9163C16.3766 86.7498 15.1168 88.0817 15.1168 89.7095C15.1168 91.3374 16.3766 92.6693 17.9163 92.6693H30.3736C30.5976 96.4873 31.1855 100.305 32.1093 104.035H13.9971C12.4574 104.035 11.1977 105.367 11.1977 106.994C11.1977 108.622 12.4574 109.954 13.9971 109.954H33.9289C36.6723 117.649 40.9554 124.842 46.8062 130.998C56.0163 140.735 68.2497 146.862 81.211 148.223C83.0586 148.431 84.9062 148.519 86.7538 148.519C97.6716 148.519 108.449 145.175 117.603 138.871C118.891 137.983 119.255 136.148 118.415 134.786C117.575 133.425 115.84 133.04 114.552 133.928C94.5082 147.72 67.6898 144.731 50.7534 126.825C30.8775 105.81 30.8775 71.6552 50.7534 50.6411C70.6292 29.627 102.934 29.627 122.81 50.6411C139.719 68.5179 142.546 96.8721 129.557 118.034C128.717 119.396 129.081 121.231 130.369 122.119C131.656 123.007 133.392 122.622 134.232 121.26C141.202 109.925 144.31 96.2505 143.05 82.7838ZM72.7568 13.1117C72.7568 10.8327 74.5204 8.96805 76.6759 8.96805H96.8317C98.9873 8.96805 100.751 10.8327 100.751 13.1117C100.751 15.3907 98.9873 17.2553 96.8317 17.2553H96.3278H77.1798H76.6759C74.4924 17.2553 72.7568 15.3907 72.7568 13.1117ZM79.9513 29.3902V23.1748H93.5004V29.3902C89.0214 28.7983 84.4583 28.8278 79.9513 29.3902Z" fill="black"/>
<path d="M124.798 125.937C124.07 125.937 123.342 126.262 122.81 126.795C122.278 127.357 121.999 128.097 121.999 128.897C121.999 129.696 122.306 130.436 122.81 130.998C123.342 131.56 124.042 131.856 124.798 131.856C125.526 131.856 126.254 131.531 126.786 130.998C127.317 130.436 127.597 129.696 127.597 128.897C127.597 128.097 127.289 127.357 126.786 126.795C126.254 126.262 125.526 125.937 124.798 125.937Z" fill="black"/>
<path d="M86.7819 42.7979C62.847 42.7979 43.363 63.3976 43.363 88.7033C43.363 114.009 62.847 134.638 86.7819 134.638C110.717 134.638 130.201 114.039 130.201 88.7329C130.201 63.4272 110.717 42.7979 86.7819 42.7979ZM86.7819 128.719C65.9263 128.719 48.9619 110.783 48.9619 88.7329C48.9619 66.6829 65.9263 48.7173 86.7819 48.7173C107.638 48.7173 124.602 66.6533 124.602 88.7033C124.602 110.753 107.638 128.719 86.7819 128.719Z" fill="black"/>
<path d="M104.502 65.795L90.645 80.4456C89.4972 79.8537 88.1815 79.4985 86.8098 79.4985C85.4381 79.4985 84.1224 79.8537 82.9746 80.4456L76.7599 73.875C75.6681 72.7207 73.9045 72.7207 72.8127 73.875C71.721 75.0293 71.721 76.894 72.8127 78.0483L79.0274 84.6188C78.4675 85.8323 78.1316 87.2234 78.1316 88.6737C78.1316 93.7348 82.0228 97.8784 86.8378 97.8784C91.6248 97.8784 95.544 93.7644 95.544 88.6737C95.544 87.2234 95.208 85.8323 94.6482 84.6188L108.113 70.3826L108.533 69.9386C109.625 68.7843 109.625 66.9197 108.533 65.7654C107.441 64.6111 105.594 64.6407 104.502 65.795ZM86.7818 91.9886C85.0742 91.9886 83.6744 90.5087 83.6744 88.7033C83.6744 86.8978 85.0742 85.418 86.7818 85.418C88.4894 85.418 89.8892 86.8978 89.8892 88.7033C89.8892 90.5087 88.4894 91.9886 86.7818 91.9886Z" fill="black"/>
<path d="M116.708 85.8027H114.104C112.564 85.8027 111.305 87.1346 111.305 88.7625C111.305 90.3903 112.564 91.7222 114.104 91.7222H116.708C118.247 91.7222 119.507 90.3903 119.507 88.7625C119.507 87.105 118.247 85.8027 116.708 85.8027Z" fill="black"/>
<path d="M59.4317 85.7139H56.8282C55.2885 85.7139 54.0288 87.0457 54.0288 88.6736C54.0288 90.3015 55.2885 91.6333 56.8282 91.6333H59.4317C60.9714 91.6333 62.2311 90.3015 62.2311 88.6736C62.2311 87.0457 60.9994 85.7139 59.4317 85.7139Z" fill="black"/>
<path d="M86.8099 62.776C88.3496 62.776 89.6093 61.4441 89.6093 59.8163V57.0637C89.6093 55.4359 88.3496 54.104 86.8099 54.104C85.2702 54.104 84.0105 55.4359 84.0105 57.0637V59.8163C84.0105 61.4441 85.2702 62.776 86.8099 62.776Z" fill="black"/>
<path d="M86.7538 114.66C85.2141 114.66 83.9543 115.992 83.9543 117.62V120.372C83.9543 122 85.2141 123.332 86.7538 123.332C88.2934 123.332 89.5532 122 89.5532 120.372V117.62C89.5532 115.992 88.2934 114.66 86.7538 114.66Z" fill="black"/>
<path d="M2.79941 104.005C2.07157 104.005 1.34372 104.331 0.81183 104.863C0.279941 105.396 0 106.195 0 106.965C0 107.734 0.307936 108.504 0.81183 109.066C1.31572 109.629 2.04357 109.925 2.79941 109.925C3.55526 109.925 4.25511 109.599 4.787 109.066C5.31889 108.504 5.59883 107.764 5.59883 106.965C5.59883 106.166 5.29089 105.426 4.787 104.863C4.25511 104.331 3.52726 104.005 2.79941 104.005Z" fill="black"/>
</g>
<defs>
<clipPath id="clip0">
<rect width="143.33" height="151.538" fill="white"/>
</clipPath>
</defs>
</svg>
