<svg width="144" height="144" viewBox="0 0 144 144" fill="none" xmlns="http://www.w3.org/2000/svg">
<g clip-path="url(#clip0)">
<path d="M24.4033 14.9281H119.603C124.848 14.9281 129.108 19.2188 129.108 24.4332V119.633C129.108 124.877 124.818 129.138 119.603 129.138H24.4033C19.1591 129.138 14.8982 124.848 14.8982 119.633V24.463C14.8982 19.2188 19.1591 14.9281 24.4033 14.9281Z" fill="#666665"/>
<path d="M98.1798 50.6243C98.1798 76.9049 76.8753 98.2094 50.5947 98.2094C24.2843 98.2094 2.97974 76.9049 2.97974 50.6243C2.97974 24.3437 24.2843 3.03918 50.5947 3.03918C76.8753 3.03918 98.1798 24.3437 98.1798 50.6243Z" fill="#FFA401"/>
<path d="M88.6747 50.6245C88.6747 71.6609 71.6311 88.7045 50.5947 88.7045C29.5583 88.7045 12.5146 71.6609 12.5146 50.6245C12.5146 29.5881 29.5583 12.5444 50.5947 12.5444C71.6013 12.5444 88.6747 29.5881 88.6747 50.6245Z" fill="#FCBE59"/>
<path d="M24.4033 50.6244C37.7224 65.1353 60.0996 66.0888 74.6105 52.7698C75.3257 52.0546 76.0408 51.3395 76.7559 50.6244C63.4368 36.1135 41.0596 35.16 26.5487 48.479C25.8336 49.1942 25.1184 49.9093 24.4033 50.6244Z" fill="#E9E9E9"/>
<path d="M100.563 24.463H121.987V29.2305H100.563V24.463Z" fill="#C4C4C4"/>
<path d="M105.331 36.3518H121.987V41.1193H105.331V36.3518Z" fill="#C4C4C4"/>
<path d="M105.331 48.2407H121.987V53.0082H105.331V48.2407Z" fill="#C4C4C4"/>
<path d="M105.331 60.1593H121.987V64.9268H105.331V60.1593Z" fill="#C4C4C4"/>
<path d="M105.331 72.0481H121.987V76.8155H105.331V72.0481Z" fill="#C4C4C4"/>
<path d="M107.715 83.937H121.987V88.7045H107.715V83.937Z" fill="#C4C4C4"/>
<path d="M22.0198 105.361H86.2612V110.128H22.0198V105.361Z" fill="#C4C4C4"/>
<path d="M22.0198 114.896H95.7961V119.663H22.0198V114.896Z" fill="#C4C4C4"/>
<path d="M33.9382 69.6644H67.2508V74.4319H33.9382V69.6644Z" fill="#239172"/>
<path d="M33.9382 26.8169H67.2508V31.5843H33.9382V26.8169Z" fill="#239172"/>
<path d="M88.6746 79.1993L107.715 100.623H110.575C111.767 100.623 112.959 101.1 113.912 102.053L138.673 126.814C140.342 128.483 141.057 130.628 141.057 132.774C141.057 137.541 137.243 141.117 132.714 141.117C130.569 141.117 128.423 140.163 126.755 138.733L101.994 113.972C101.04 113.018 100.563 111.827 100.563 110.635V107.774L81.5234 86.3505" fill="#3F3F3F"/>
<path d="M57.7159 50.6243C57.7159 54.5575 54.5277 57.7755 50.5648 57.7755C46.6316 57.7755 43.4136 54.5873 43.4136 50.6243C43.4136 46.6912 46.6018 43.4731 50.5648 43.4731C54.5277 43.4731 57.7159 46.6912 57.7159 50.6243Z" fill="#4A4A56"/>
<path d="M141.027 132.744C141.027 130.598 140.074 128.453 138.644 126.784L113.883 102.023C112.929 101.07 111.737 100.593 110.545 100.593H107.685L100.534 107.744V110.605C100.534 111.797 101.01 112.989 101.964 113.942L126.725 138.703C130.062 142.04 135.277 142.04 138.614 138.703C140.074 137.005 141.027 134.859 141.027 132.744Z" fill="#2B2B2B"/>
<path d="M78.663 49.1941C64.3904 33.4913 40.3446 32.5378 24.8802 46.572C24.1651 47.2871 23.2116 48.0023 22.4965 48.9558L21.543 50.6244L22.7348 52.0546L22.9732 52.293C37.0074 67.7574 61.0532 68.7109 76.5176 54.6767C77.2328 53.9616 78.1863 53.2465 78.9014 52.293L80.0932 50.6244L78.663 49.1941ZM45.8272 50.6244C45.8272 48.0023 47.9725 45.8569 50.5946 45.8569C53.2167 45.8569 55.3621 48.0023 55.3621 50.6244C55.3621 53.2465 53.2167 55.3918 50.5946 55.3918C47.9725 55.3918 45.8272 53.2465 45.8272 50.6244ZM47.4958 41.596C42.49 43.2646 39.8679 48.5088 41.2981 53.4848C42.2516 56.3453 44.3969 58.729 47.4958 59.6825C40.1062 58.9674 32.9849 55.8686 27.5023 50.6542C33.2232 45.3802 40.1062 42.3111 47.4958 41.596ZM53.6637 59.6825C58.6695 58.0139 61.2916 52.7697 59.8614 47.7937C58.9079 44.9332 56.7625 42.5495 53.6637 41.596C61.0532 42.3111 68.1746 45.41 73.6572 50.6542C67.966 55.8686 61.0532 58.9674 53.6637 59.6825Z" fill="black"/>
<path d="M50.5946 10.1606C28.2174 10.1606 10.1309 28.2472 10.1309 50.6244C10.1309 73.0016 28.2174 91.0882 50.5946 91.0882C72.9718 91.0882 91.0584 73.0016 91.0584 50.6244C91.0584 28.2472 72.9421 10.1606 50.5946 10.1606ZM50.5946 86.3207C30.8395 86.3207 14.8983 70.3795 14.8983 50.6244C14.8983 30.8693 30.8395 14.9281 50.5946 14.9281C70.3497 14.9281 86.2909 30.8693 86.2909 50.6244C86.2909 70.3795 70.3497 86.3207 50.5946 86.3207Z" fill="black"/>
<path d="M131.492 102.977V24.4629C131.492 17.7885 126.248 12.5741 119.604 12.5741H93.4124V17.3415H119.604C123.656 17.3415 126.755 20.4404 126.755 24.4927V103.037H131.492V102.977Z" fill="black"/>
<path d="M12.5146 95.8556V119.663C12.5146 126.337 17.7588 131.552 24.4035 131.552H107.685V126.784H24.4035C20.3512 126.784 17.2523 123.686 17.2523 119.633V95.8258H12.5146V95.8556Z" fill="black"/>
<path d="M100.563 24.463H121.987V29.2305H100.563V24.463Z" fill="black"/>
<path d="M105.331 36.3518H121.987V41.1193H105.331V36.3518Z" fill="black"/>
<path d="M105.331 48.2406H121.987V53.0081H105.331V48.2406Z" fill="black"/>
<path d="M105.331 60.1593H121.987V64.9268H105.331V60.1593Z" fill="black"/>
<path d="M105.331 72.0481H121.987V76.8155H105.331V72.0481Z" fill="black"/>
<path d="M107.715 83.937H121.987V88.7045H107.715V83.937Z" fill="black"/>
<path d="M22.0198 105.361H86.2612V110.128H22.0198V105.361Z" fill="black"/>
<path d="M22.0198 114.896H95.7961V119.663H22.0198V114.896Z" fill="black"/>
<path d="M33.9382 69.6644H67.2508V74.4319H33.9382V69.6644Z" fill="black"/>
<path d="M33.9382 26.8169H67.2508V31.5843H33.9382V26.8169Z" fill="black"/>
<path d="M115.551 100.355C114.121 98.9247 112.452 98.2096 110.545 98.2096H108.877L91.7435 78.961C107.446 56.107 101.964 24.9398 79.1396 8.99858C56.2856 -6.97239 24.88 -1.01307 9.17724 21.6025C-6.52556 44.2181 -1.04299 75.6237 21.7812 91.5649C39.8677 104.169 64.1519 103.454 81.5233 89.6579L98.1796 108.46V110.367C98.1796 112.274 98.8947 114.181 100.325 115.372L125.086 140.133C129.377 144.424 136.021 144.424 140.312 140.133C144.603 135.843 144.603 129.198 140.312 124.907L115.551 100.355ZM5.36328 50.6244C5.36328 25.6251 25.5951 5.42299 50.5945 5.42299C75.5938 5.42299 95.7959 25.6251 95.7959 50.6244C95.7959 75.6237 75.564 95.8556 50.5647 95.8556C25.5654 95.8556 5.36328 75.6237 5.36328 50.6244ZM85.0989 86.7975C86.2908 85.6056 87.721 84.1754 88.6745 82.9835L104.377 100.593L100.563 104.169L85.0989 86.7975ZM132.684 138.673C131.015 138.673 129.585 137.958 128.393 137.005L103.632 112.244C103.156 111.767 102.917 111.29 102.917 110.575V108.668L108.638 102.947H110.545C111.26 102.947 111.737 103.186 112.214 103.662L136.975 128.423C139.358 130.807 139.358 134.621 136.975 137.005C135.783 137.958 134.114 138.673 132.684 138.673Z" fill="black"/>
</g>
<defs>
<clipPath id="clip0">
<rect width="143.322" height="143.322" fill="white"/>
</clipPath>
</defs>
</svg>
